<?xml version="1.0" encoding="UTF-8"?><svg id="Capa_1" xmlns="http://www.w3.org/2000/svg" viewBox="0 0 1117.95 1190.55"><defs><style>.cls-1{fill:#fff;font-size:35px;}.cls-1,.cls-2,.cls-3,.cls-4,.cls-5{font-family:Coda-ExtraBold, Coda;font-weight:700;}.cls-6{stroke:#fff;stroke-width:7.35px;}.cls-6,.cls-7{fill:none;stroke-miterlimit:10;}.cls-2{fill:#009fe3;}.cls-2,.cls-3,.cls-5{font-size:33px;}.cls-3{fill:#82368c;}.cls-8{fill:#c6c6c6;}.cls-9{fill:#36a9e1;}.cls-10{fill:#ffdc7e;}.cls-11{letter-spacing:0em;}.cls-12{font-family:Coda-Regular, Coda;font-size:28px;}.cls-12,.cls-4{fill:#1d1d1b;}.cls-4{font-size:24.99px;}.cls-13{fill:#009640;}.cls-14{letter-spacing:-.01em;}.cls-15{letter-spacing:-.01em;}.cls-16{letter-spacing:-.01em;}.cls-5{fill:#d41f16;}.cls-7{stroke:#ffdc7e;stroke-width:29px;}</style></defs><rect x="-17.94" y="-18.64" width="1706.87" height="1213.91"/><path class="cls-9" d="M-27.9,1287.22c0-241.04,507.43-436.45,1133.38-436.45,3.92,0,7.83,0,11.74.02v412.64l-1145.11,23.79Z"/><path class="cls-8" d="M338,842.95c15.15,0,16.3,8.41,30.67,3.62,10.29-3.43,2.29-6.48,9.67-8.04,6.55-1.39,9.89-6.42,9.61-13.16-.28-6.76-4.16-11.35-10.72-12.13-4.63-.55-6.5-2.35-7.99-6.52-4.08-11.46-12.87-16.33-24.78-13.83-3.61.76-5.53.11-7.55-3-5.37-8.29-13.27-12.2-23.07-10.54-9.37,1.59-15.75,7.28-18.23,16.64-1.05,3.95-2.7,6.36-7.26,6.24-1.93-.05-4.2.68-5.77,1.81-7.71,5.53-4.76,13.28-12.87,18.95-4.37,3.06-1.23,12.96,4.64,15.12,5.83,2.15,4.23,9.63,7.73,10.31,12.43,2.39,20.96-5.84,28.18-2.75,18.37,7.87,12.59-2.73,27.74-2.73Z"/><path class="cls-8" d="M143.02,701.74c.18,3.23,1.17,7.3,4.42,8.83,7.11,3.34,13.61,9.78,22.62,6.3,2.25-.87,3.86,0,5.76.88,2.05.96,5.16,2.74,6.37,1.95,10.27-6.68,21.38,5.15,31.57-1.73,2.03-1.37,3.56,1.27,5.1,2.52,10.37,8.4,20.23,8.58,30.74.53,1.39-1.06,2.65-3.3,4.45-2.46,6.72,3.11,13.08-.81,19.29-.55,6.97.29,12.34-2.66,18.32-4.3,5.27-1.45,8.24-5.5,7.17-11.12-1.03-5.4-4.84-8.78-10.39-8.27-3.87.35-6.23-.6-8.46-3.57-1.17-1.55-3.26-3.51-4.86-3.45-8.83.38-11.28-6.24-15.2-12.09-6.27-9.34-18.05-12.36-28.75-7.74-4.34,1.88-6.39,1.37-9.45-2.38-9.34-11.42-26.05-9.29-32.23,4.06-1.93,4.17-3.74,6.48-8.6,6.78-5.92.37-10.91,3.57-13.71,8.79-2.28,4.25-4.79,4.66-9.21,3.89-8.09-1.41-14.9,4.76-14.95,13.13Z"/><path class="cls-8" d="M219.37,882.13c-6.82,3.74-10.89-1.08-15.99-6.5-11.39-12.11-31.14-7.46-36.93,8.36-1.73,4.73-3.08,8.52-9.09,8.2-1.61-.09-13.82,3.82-15.1,4.93-7.01,6.09-1.76,11.12-8.39,17.73-6.52,6.49,2.94,18.29,13.99,16.94,6.87-.84,12.72,1.53,18.92,2.19,10.09,1.07,19.13,3.69,28.43,7.29,6.36,2.46,12.64-1.12,17.28-6,2.7-2.84,5.18-3.91,8.69-1.94.65.37,1.49.7,2.2.63,10.65-1.06,20.96-3.77,30.39-8.65,4.77-2.47,5.17-8.07,3.94-13.11-1.29-5.27-5.19-8.65-10.3-9.14-5.04-.49-6.83-2.84-8.31-7.27-2.9-8.69-10-13.52-19.72-13.65Z"/><text class="cls-1" transform="translate(976.29 935.94)"><tspan x="0" y="0">Tier</tspan><tspan class="cls-15" x="76.92" y="0">r</tspan><tspan class="cls-11" x="93.26" y="0">a</tspan></text><circle class="cls-10" cx="296.08" cy="285.11" r="104.43"/><text class="cls-4" transform="translate(269.87 293.07)"><tspan x="0" y="0">Sol</tspan></text><text class="cls-5" transform="translate(160.31 920.79)"><tspan x="0" y="0">CO2</tspan></text><text class="cls-2" transform="translate(291.65 831.71)"><tspan x="0" y="0">CH4</tspan></text><text class="cls-3" transform="translate(188.07 706.9)"><tspan x="0" y="0">NOx</tspan></text><text class="cls-1" transform="translate(880.54 797.26)"><tspan x="0" y="0">Atmós</tspan><tspan class="cls-14" x="129.22" y="0">f</tspan><tspan x="147.9" y="0">e</tspan><tspan class="cls-16" x="172.68" y="0">r</tspan><tspan x="189.01" y="0">a</tspan></text><path class="cls-6" d="M1117.18,433.6c-3.9-.02-7.8-.02-11.71-.02-625.95,0-1133.38,195.4-1133.38,436.45"/><line class="cls-7" x1="546.35" y1="948.8" x2="336.2" y2="412.76"/><polygon class="cls-10" points="582.1 921.15 569.14 1006.92 501.33 952.82 582.1 921.15"/><text class="cls-12" transform="translate(395.51 588.25) rotate(68.52)"><tspan x="0" y="0">R</tspan></text><text class="cls-12" transform="translate(402.14 605.1) rotate(68.52)"><tspan x="0" y="0">a</tspan></text><text class="cls-12" transform="translate(407.7 619.22) rotate(68.52)"><tspan x="0" y="0">d</tspan></text><text class="cls-12" transform="translate(413.61 634.25) rotate(68.52)"><tspan x="0" y="0">i</tspan></text><text class="cls-12" transform="translate(416.23 640.91) rotate(68.52)"><tspan x="0" y="0">a</tspan></text><text class="cls-12" transform="translate(421.79 655.02) rotate(68.52)"><tspan x="0" y="0">c</tspan></text><text class="cls-12" transform="translate(427.26 668.94) rotate(68.52)"><tspan x="0" y="0">i</tspan></text><text class="cls-12" transform="translate(429.88 675.59) rotate(68.52)"><tspan x="0" y="0">ó</tspan></text><text class="cls-12" transform="translate(435.78 690.58) rotate(68.52)"><tspan x="0" y="0">n</tspan></text><text class="cls-12" transform="translate(441.65 705.49) rotate(68.52)"><tspan x="0" y="0"> </tspan></text><text class="cls-12" transform="translate(443.64 710.55) rotate(68.52)"><tspan x="0" y="0">s</tspan></text><text class="cls-12" transform="translate(448.84 723.78) rotate(68.52)"><tspan x="0" y="0">o</tspan></text><text class="cls-12" transform="translate(454.72 738.7) rotate(68.52)"><tspan x="0" y="0">l</tspan></text><text class="cls-12" transform="translate(457.31 745.3) rotate(68.52)"><tspan x="0" y="0">a</tspan></text><text class="cls-12" transform="translate(462.87 759.42) rotate(68.52)"><tspan x="0" y="0">r</tspan></text><path class="cls-13" d="M589.99,1212.45c9.16-11.31,33.48-41.35,40.92-65.25,8.98-28.84-7.61-45.44-19.26-90.35-6.35-24.5-23.93-92.31,0-136.78,34.42-63.96,125.85-26.92,170.91-25.1,57.44,2.32,115.3,29.89,143.23,72.78,27.41,42.09,229.39,73.71,188.97,184.47-15.66,42.93-60.02,1.63-120.67,91.65-65.2,96.76-156.17,45.65-197.99,41.05-50.04-5.5-81.21,10.63-65.19-33.8,14.01-38.86-73.34,50.13-69.92,15.3,2.45-24.95-24.27-52.32-37.31-48.94-13.01,3.38-8.93,36.46-26.48,42.67-10.39,3.67-24.9-3.28-27.68-12.55-2.84-9.48,7.32-18.9,20.46-35.14Z"/></svg>