<?xml version="1.0" encoding="UTF-8"?><svg id="Capa_1" xmlns="http://www.w3.org/2000/svg" viewBox="0 0 1112.63 1190.55"><defs><style>.cls-1{fill:#d41f16;}.cls-1,.cls-2,.cls-3{font-family:Coda-ExtraBold, Coda;font-size:106.59px;font-weight:700;}.cls-2{fill:#82368c;}.cls-4{fill:#c6c6c6;}.cls-3{fill:#009fe3;}</style></defs><rect x="-17.94" y="-18.64" width="1706.87" height="1213.91"/><path class="cls-4" d="M262.38,658.06c-48.93,0-52.65,27.16-99.06,11.69-33.23-11.08-7.38-20.92-31.23-25.97-21.15-4.48-31.94-20.74-31.05-42.49.89-21.83,13.44-36.66,34.64-39.18,14.96-1.78,21.01-7.58,25.81-21.07,13.18-37.01,41.57-52.73,80.03-44.66,11.65,2.44,17.86.36,24.38-9.7,17.36-26.78,42.86-39.4,74.51-34.03,30.28,5.14,50.88,23.5,58.89,53.76,3.38,12.76,8.74,20.53,23.44,20.16,6.22-.16,13.56,2.2,18.64,5.85,24.89,17.86,15.37,42.89,41.57,61.21,14.11,9.87,3.97,41.86-14.98,48.84-18.82,6.94-13.65,31.12-24.97,33.3-40.14,7.73-67.71-18.87-91.02-8.88-59.32,25.42-40.67-8.83-89.6-8.82Z"/><path class="cls-4" d="M761.52,217.75c-.59,10.43-3.77,23.57-14.29,28.51-22.96,10.79-43.96,31.59-73.04,20.34-7.25-2.8-12.48-.01-18.62,2.84-6.63,3.09-16.65,8.84-20.56,6.3-33.18-21.58-69.06,16.65-101.97-5.59-6.55-4.43-11.51,4.11-16.48,8.14-33.49,27.13-65.33,27.7-99.29,1.7-4.49-3.44-8.54-10.65-14.38-7.96-21.72,10.04-42.24-2.62-62.31-1.77-22.53.95-39.85-8.59-59.18-13.89-17.03-4.67-26.61-17.77-23.15-35.92,3.33-17.44,15.63-28.36,33.56-26.72,12.49,1.14,20.11-1.93,27.34-11.52,3.78-5.01,10.54-11.35,15.7-11.13,28.53,1.23,36.43-20.16,49.11-39.06,20.25-30.17,58.29-39.92,92.86-24.99,14.03,6.06,20.63,4.41,30.52-7.68,30.18-36.9,84.14-30.02,104.11,13.13,6.23,13.46,12.08,20.93,27.79,21.9,19.13,1.18,35.25,11.54,44.27,28.38,7.35,13.74,15.47,15.06,29.76,12.56,26.13-4.56,48.14,15.38,48.27,42.41Z"/><path class="cls-4" d="M475.14,863.9c22.03,12.09,35.18-3.49,51.64-21,36.79-39.13,100.58-24.09,119.29,27.01,5.6,15.28,9.93,27.52,29.37,26.49,5.2-.27,44.64,12.34,48.78,15.93,22.64,19.68,5.67,35.92,27.09,57.25,21.04,20.96-9.5,59.07-45.17,54.72-22.18-2.7-41.07,4.95-61.1,7.07-32.59,3.45-61.79,11.93-91.84,23.55-20.54,7.94-40.84-3.61-55.8-19.38-8.72-9.19-16.73-12.64-28.08-6.28-2.11,1.18-4.81,2.26-7.1,2.03-34.38-3.43-67.7-12.16-98.15-27.95-15.39-7.98-16.71-26.07-12.73-42.34,4.17-17.03,16.76-27.92,33.26-29.54,16.27-1.59,22.06-9.17,26.84-23.48,9.37-28.06,32.28-43.65,63.71-44.09Z"/><text class="cls-1" transform="translate(442.55 993.35)"><tspan x="0" y="0">CO2</tspan></text><text class="cls-3" transform="translate(184.81 618.18)"><tspan x="0" y="0">CH4</tspan></text><text class="cls-2" transform="translate(401.77 233.77)"><tspan x="0" y="0">NOx</tspan></text></svg>